<?xml version="1.0" encoding="UTF-8" standalone="no"?>
<svg
   xmlns:dc="http://purl.org/dc/elements/1.1/"
   xmlns:cc="http://creativecommons.org/ns#"
   xmlns:rdf="http://www.w3.org/1999/02/22-rdf-syntax-ns#"
   xmlns:svg="http://www.w3.org/2000/svg"
   xmlns="http://www.w3.org/2000/svg"
   id="svg3449"
   viewBox="-1.0152333 -1.0152333 90.2267556 35.8715766"
   height="407"
   width="1024"
   version="1.1">
  <metadata
     id="metadata7">
    <rdf:RDF>
      <cc:Work
         rdf:about="">
        <dc:format>image/svg+xml</dc:format>
        <dc:type
           rdf:resource="http://purl.org/dc/dcmitype/StillImage" />
      </cc:Work>
    </rdf:RDF>
  </metadata>
  <defs
     id="defs3451" />
  <path
     style="fill:#FFFFFF;fill-opacity:1;fill-rule:evenodd;stroke:none"
     id="path3132"
     d="M 27.61102,16.52246 21.85045,6e-5 l -4.56873,0 0,16.5224 10.3293,0 z m -10.3293,10.15231 5.56193,0 2.38368,7.16634 8.54154,0 -5.76057,-16.32333 -10.72658,0 0,9.15699 z M 16.28852,6e-5 l -4.37009,0 -5.76057,16.5224 10.13066,0 0,-16.5224 z M 5.76058,17.51778 0,33.84111 l 8.54154,0 2.38369,-7.16634 5.36329,0 0,-9.15699 -10.52794,0 z m 58.59889,-0.99536 10.3293,0 0,-16.5224 -10.3293,0 0,16.5224 z m 21.85022,-2e-5 C 85.01785,15.12894 83.62756,13.93455 82.03824,13.13829 84.02485,11.74484 85.21669,9.75419 85.21669,7.16634 85.21669,3.38411 82.03824,0 78.06563,0 l -2.38368,0 0,16.5224 10.52774,0 z m -21.85022,17.31867 10.3293,0 0,-16.32333 -10.3293,0 0,16.32333 z m 11.32248,4e-5 2.38368,0 c 5.76038,-0.39813 10.13066,-4.97662 10.13066,-10.94857 0,-1.99065 -0.39728,-3.78224 -1.39068,-5.37476 l -11.12366,0 0,16.32333 z m -38.9335,-17.31869 10.3293,0 0,-16.5224 -10.3293,0 0,16.5224 z m 21.85043,-2e-5 c -1.19185,-1.39346 -2.58233,-2.58785 -4.17145,-3.38411 1.9862,-1.39345 3.17805,-3.3841 3.17805,-5.97195 C 57.60548,3.38411 54.42743,0 50.45442,0 l -2.38368,0 0,16.5224 10.52814,0 z m -21.85043,17.31867 10.3293,0 0,-16.32333 -10.3293,0 0,16.32333 z m 11.32229,4e-5 2.38368,0 c 5.76077,-0.39813 10.13066,-4.97662 10.13066,-10.94857 0,-1.99065 -0.39708,-3.78224 -1.39028,-5.37476 l -11.12406,0 0,16.32333 z" />
</svg>
